<svg xmlns="http://www.w3.org/2000/svg" viewBox="0 0 360 96" width="360" height="96" font-family="'Segoe UI',system-ui,Helvetica,Arial,sans-serif">
  <defs>
    <linearGradient id="zg" x1="2" y1="2" x2="22" y2="22" gradientUnits="userSpaceOnUse">
      <stop offset="0" stop-color="#5b9dff"/>
      <stop offset="1" stop-color="#9d7bff"/>
    </linearGradient>
    <linearGradient id="ztext" x1="0" y1="0" x2="1" y2="0" spreadMethod="repeat">
      <stop offset="0"    stop-color="#6aa8ff"/>
      <stop offset="0.25" stop-color="#9d7bff"/>
      <stop offset="0.5"  stop-color="#d8ccff"/>
      <stop offset="0.75" stop-color="#9d7bff"/>
      <stop offset="1"    stop-color="#6aa8ff"/>
      <animate attributeName="x1" values="0;-1" dur="6s" repeatCount="indefinite"/>
      <animate attributeName="x2" values="1;0" dur="6s" repeatCount="indefinite"/>
    </linearGradient>
  </defs>

  <g transform="translate(12,12) scale(3)" fill="none" stroke-linejoin="round" stroke-linecap="round">
    <g stroke="url(#zg)">
      <polygon points="12,2 3.34,7 3.34,17 12,22 20.66,17 20.66,7" stroke-width="1.4"/>
      <polygon points="17.8,12 14.9,6.98 9.1,6.98 6.2,12 9.1,17.02 14.9,17.02" stroke-width="1.05"/>
      <path stroke-width="0.85" opacity="0.6" d="M12 2 9.1 6.98M12 2 14.9 6.98M3.34 7 9.1 6.98M3.34 7 6.2 12M3.34 17 6.2 12M3.34 17 9.1 17.02M12 22 9.1 17.02M12 22 14.9 17.02M20.66 17 14.9 17.02M20.66 17 17.8 12M20.66 7 17.8 12M20.66 7 14.9 6.98"/>
    </g>
    <polygon points="12,8.7 15.3,12 12,15.3 8.7,12" fill="none" stroke="#b794ff" stroke-width="1.5">
      <animateTransform attributeName="transform" type="rotate" values="0 12 12;360 12 12" dur="14s" repeatCount="indefinite"/>
    </polygon>
  </g>

  <text x="98" y="62" font-size="54" font-weight="800" letter-spacing="-1.5" fill="url(#ztext)">Zunex</text>
</svg>
